<svg xmlns="http://www.w3.org/2000/svg" viewBox="0 0 66 64.89"><defs><style>.cls-1{fill:#ed1c24;}</style></defs><title>Asset 40</title><g id="Layer_2" data-name="Layer 2"><g id="ICON"><path class="cls-1" d="M33,64.89c-16.22,0-33-4.35-33-11.64V47.16a1,1,0,0,1,2,0v6.09c0,4.56,12.73,9.64,31,9.64s31-5.08,31-9.64V47.16a1,1,0,0,1,2,0v6.09C66,60.54,49.22,64.89,33,64.89Z"/><path class="cls-1" d="M33,59.57a1,1,0,0,1,0-2,87.66,87.66,0,0,0,13-.93,1,1,0,1,1,.3,2A90.36,90.36,0,0,1,33,59.57Z"/><path class="cls-1" d="M50,58a1,1,0,0,1-1-.8A1,1,0,0,1,49.75,56a51.5,51.5,0,0,0,5.77-1.54,1,1,0,1,1,.64,1.89,54,54,0,0,1-6,1.61Z"/><path class="cls-1" d="M33,44.53c-16.22,0-33-4.36-33-11.64a1,1,0,0,1,.11-.47,32.89,32.89,0,0,1,65.78,0,1,1,0,0,1,.11.47C66,40.17,49.22,44.53,33,44.53ZM2,33.28c.7,4.45,13.22,9.25,31,9.25s30.27-4.8,31-9.25a1,1,0,0,1-.08-.39,30.89,30.89,0,0,0-61.78,0A1,1,0,0,1,2,33.28Z"/><path class="cls-1" d="M21.66,61.27a3.64,3.64,0,0,1-2.41-.92L3.13,45.83A6.06,6.06,0,0,1,1.7,38.72l1-2.07a1,1,0,0,1,1.81.85l-1,2.07a4.07,4.07,0,0,0,1,4.77L20.59,58.86a1.6,1.6,0,0,0,2.15,0l16.62-16a1,1,0,0,1,1.39,1.44L24.11,60.31A3.63,3.63,0,0,1,21.66,61.27Z"/><path class="cls-1" d="M21.09,53.33a8.43,8.43,0,0,1-8.42-8.42,8.25,8.25,0,0,1,.76-3.49,1,1,0,0,1,1.32-.49,1,1,0,0,1,.5,1.32,6.25,6.25,0,0,0-.58,2.66,6.42,6.42,0,1,0,12.83,0,6.29,6.29,0,0,0-.06-.88,1,1,0,0,1,.86-1.13,1,1,0,0,1,1.12.85,7.45,7.45,0,0,1,.08,1.16A8.42,8.42,0,0,1,21.09,53.33Z"/><path class="cls-1" d="M20.35,50.33h-.1a1,1,0,0,1-.9-1.1L19.47,48a1,1,0,0,1,1.1-.89,1,1,0,0,1,.89,1.09l-.12,1.21A1,1,0,0,1,20.35,50.33Z"/><path class="cls-1" d="M24.76,49.12a1,1,0,0,1-.76-.34l-.84-1a1,1,0,1,1,1.5-1.31l.85,1a1,1,0,0,1-.09,1.42A1,1,0,0,1,24.76,49.12Z"/><path class="cls-1" d="M16.9,47a1,1,0,0,1-.8-.4,1,1,0,0,1,.2-1.4l1-.73a1,1,0,0,1,1.2,1.6l-1,.73A1,1,0,0,1,16.9,47Z"/><path class="cls-1" d="M41.14,55.11l-.2,0-5.82-1.18H30.33a1,1,0,0,1,0-2h4.89l.19,0L41,53.06l5.88-2.65a1.3,1.3,0,0,1,.34-.08l7.88-.52a51.21,51.21,0,0,1,6.26-5.62A3.62,3.62,0,0,0,63,41.6,5.65,5.65,0,0,0,61.46,38a1,1,0,1,1,1.44-1.38A7.59,7.59,0,0,1,65,41.74a5.57,5.57,0,0,1-2.36,4,47.26,47.26,0,0,0-6.26,5.66,1,1,0,0,1-.69.35l-8.11.53-6,2.71A1,1,0,0,1,41.14,55.11Z"/><path class="cls-1" d="M53.05,33.1a1,1,0,0,1-1-1,1.8,1.8,0,0,0-1.79-1.8,1,1,0,0,1,0-2,3.8,3.8,0,0,1,3.79,3.8A1,1,0,0,1,53.05,33.1Z"/><path class="cls-1" d="M46,34.49a3.8,3.8,0,0,1-3.8-3.79,1,1,0,1,1,2,0A1.8,1.8,0,0,0,46,32.49a1,1,0,0,1,0,2Z"/><path class="cls-1" d="M46.64,27.5a1,1,0,0,1-1-1,3.8,3.8,0,0,1,3.8-3.79,1,1,0,0,1,0,2,1.8,1.8,0,0,0-1.8,1.79A1,1,0,0,1,46.64,27.5Z"/></g></g></svg>