<svg xmlns="http://www.w3.org/2000/svg" viewBox="0 0 66 66"><defs><style>.cls-1{fill:#ec2027;}</style></defs><title>Asset 130</title><g id="Layer_2" data-name="Layer 2"><g id="ICON"><path class="cls-1" d="M33,44.31A11.31,11.31,0,1,1,44.31,33,11.32,11.32,0,0,1,33,44.31Zm0-20.62A9.31,9.31,0,1,0,42.31,33,9.33,9.33,0,0,0,33,23.69Z"/><path class="cls-1" d="M33,66A33,33,0,1,1,66,33,33,33,0,0,1,33,66ZM33,2A31,31,0,1,0,64,33,31,31,0,0,0,33,2Z"/><path class="cls-1" d="M32.49,61.16a5.59,5.59,0,0,1-3.76-1.54,12.64,12.64,0,0,1-2.68-4.54l-.23-.56a40.15,40.15,0,0,0-1.76-3.69,3.27,3.27,0,0,0-1.32-1.57,3.52,3.52,0,0,0-1.48-.08l-.35,0A13.06,13.06,0,0,1,8,40.13q-.21-.77-.39-1.56c-.36-1.56-.7-3-1.73-3.85S3,33.9,1.6,34.12a1,1,0,1,1-.3-2c1.15-.17,4-.43,5.82,1,1.59,1.26,2,3.23,2.44,5,.11.49.23,1,.36,1.45a11,11,0,0,0,10.87,7.64l.32,0a5.06,5.06,0,0,1,2.38.21,4.94,4.94,0,0,1,2.33,2.48c.68,1.26,1.3,2.56,1.85,3.87l.23.57a11.1,11.1,0,0,0,2.21,3.86c1,.94,2.68,1.38,3.63.55a3.8,3.8,0,0,0,.91-2.91c0-.5,0-1,0-1.52A14.51,14.51,0,0,1,35,49.87c.62-2.17,2.62-4.34,5.12-4.08s4,2.93,4.89,4.68c.62,1.21,1.91,3.22,3.44,3,1.16-.14,1.93-1.51,2.15-2.72a14.08,14.08,0,0,0,.18-2.29A16.21,16.21,0,0,1,51,45.83c.43-2.27,2.23-4.5,4.84-4.3a19.56,19.56,0,0,1,3.09.54,9.11,9.11,0,0,0,4.1.35,1,1,0,0,1,.49,1.94A10.56,10.56,0,0,1,58.47,44a17.88,17.88,0,0,0-2.77-.49c-1.44-.09-2.47,1.28-2.74,2.69a14.49,14.49,0,0,0-.19,2.34,16.53,16.53,0,0,1-.21,2.59c-.37,2-1.7,4.07-3.87,4.34-1.44.18-3.56-.38-5.47-4.1-.93-1.81-1.88-3.44-3.32-3.6s-2.59,1.23-3,2.64a12.65,12.65,0,0,0-.27,3.83c0,.54,0,1.08,0,1.61,0,2-.55,3.47-1.59,4.37A3.83,3.83,0,0,1,32.49,61.16Z"/><path class="cls-1" d="M53,38.05a1,1,0,0,1-1-1,3.71,3.71,0,0,1,3.71-3.71,1,1,0,0,1,0,2A1.71,1.71,0,0,0,54,37.05,1,1,0,0,1,53,38.05Z"/><path class="cls-1" d="M45.8,22.73a1,1,0,0,1-1-1A3.72,3.72,0,0,1,48.51,18a1,1,0,0,1,0,2,1.72,1.72,0,0,0-1.71,1.71A1,1,0,0,1,45.8,22.73Z"/><path class="cls-1" d="M15.57,30.17a3.72,3.72,0,0,1-3.71-3.71,1,1,0,0,1,2,0,1.72,1.72,0,0,0,1.71,1.71,1,1,0,0,1,0,2Z"/><path class="cls-1" d="M28,11.73A3.72,3.72,0,0,1,24.24,8a1,1,0,0,1,2,0A1.72,1.72,0,0,0,28,9.73a1,1,0,0,1,0,2Z"/><path class="cls-1" d="M15.57,17.66a1,1,0,0,1,0-2A1.71,1.71,0,0,0,17.28,14a1,1,0,0,1,2,0A3.71,3.71,0,0,1,15.57,17.66Z"/><path class="cls-1" d="M33,18.32a1,1,0,0,1,0-2,1.72,1.72,0,0,0,1.71-1.71,1,1,0,0,1,2,0A3.72,3.72,0,0,1,33,18.32Z"/><path class="cls-1" d="M56.58,28.81a3.72,3.72,0,0,1-3.71-3.71,1,1,0,0,1,2,0,1.72,1.72,0,0,0,1.71,1.71,1,1,0,0,1,0,2Z"/><path class="cls-1" d="M43.31,13.08a1,1,0,0,1-1-1,1.72,1.72,0,0,0-1.71-1.71,1,1,0,0,1,0-2,3.72,3.72,0,0,1,3.71,3.71A1,1,0,0,1,43.31,13.08Z"/><path class="cls-1" d="M45.17,44.31a1,1,0,0,1-.75-1.66l2-2.23a1,1,0,0,1,1.42-.08,1,1,0,0,1,.07,1.41l-2,2.23A1,1,0,0,1,45.17,44.31Z"/><path class="cls-1" d="M16.93,41.33a.94.94,0,0,1-.37-.07A1,1,0,0,1,16,40l.82-2.09a1,1,0,0,1,1.86.74l-.82,2.08A1,1,0,0,1,16.93,41.33Z"/><path class="cls-1" d="M54.34,13.75a1,1,0,0,1-.52-1.85l2.24-1.38a1,1,0,0,1,1,1.7L54.87,13.6A1,1,0,0,1,54.34,13.75Z"/><path class="cls-1" d="M42.91,31.13a1,1,0,0,1-.79-.37,1,1,0,0,1,.16-1.41l2.26-1.8a1,1,0,1,1,1.25,1.57l-2.26,1.8A1.05,1.05,0,0,1,42.91,31.13Z"/></g></g></svg>