<svg xmlns="http://www.w3.org/2000/svg" viewBox="0 0 66 66"><defs><style>.cls-1{fill:#ec2027;}</style></defs><title>Asset 140</title><g id="Layer_2" data-name="Layer 2"><g id="ICON"><path class="cls-1" d="M42.36,26.75h-.09a1,1,0,0,1-.91-1.09L42.62,11.3a1,1,0,0,1,2,.18L43.35,25.84A1,1,0,0,1,42.36,26.75Z"/><path class="cls-1" d="M36.37,66H12a3.75,3.75,0,0,1-3.76-3.45L7,48.09A1,1,0,0,1,7.87,47,1,1,0,0,1,9,47.92l1.27,14.46A1.78,1.78,0,0,0,12,64H36.37a1.77,1.77,0,0,0,1.77-1.62l1.27-14.46a1,1,0,0,1,2,.17L40.13,62.55A3.75,3.75,0,0,1,36.37,66Z"/><path class="cls-1" d="M6,26.75a1,1,0,0,1-1-.91L3.74,11.48a1,1,0,0,1,2-.18L7,25.66a1,1,0,0,1-.91,1.09Z"/><path class="cls-1" d="M47.36,12.39H1a1,1,0,0,1-1-1V7.56A3.87,3.87,0,0,1,3.86,3.69H6.39A4.7,4.7,0,0,1,11,0H37.39A4.7,4.7,0,0,1,42,3.69H44.5a3.87,3.87,0,0,1,3.86,3.87v3.83A1,1,0,0,1,47.36,12.39ZM2,10.39H46.36V7.56A1.87,1.87,0,0,0,44.5,5.69H41.08a1,1,0,0,1-1-1A2.7,2.7,0,0,0,37.39,2H11A2.7,2.7,0,0,0,8.28,4.69a1,1,0,0,1-1,1H3.86A1.87,1.87,0,0,0,2,7.56Z"/><path class="cls-1" d="M41.87,49H6.49a1,1,0,0,1-1-.92l-2-22.25a1,1,0,0,1,1-1.09h39.3a1,1,0,0,1,1,1.09l-2,22.25A1,1,0,0,1,41.87,49ZM7.4,47H41l1.78-20.26H5.62Z"/><path class="cls-1" d="M24.18,44.6a7.76,7.76,0,0,1-6.36-3.36H13.1a1,1,0,0,1-1-1V33.52a1,1,0,0,1,1-1h4.72a7.7,7.7,0,0,1,12.72,0h4.72a1,1,0,0,1,1,1v6.72a1,1,0,0,1-1,1H30.54A7.76,7.76,0,0,1,24.18,44.6ZM14.1,39.24h4.27a1,1,0,0,1,.86.5,5.71,5.71,0,0,0,9.9,0,1,1,0,0,1,.86-.5h4.27V34.52H30a1,1,0,0,1-.86-.5,5.71,5.71,0,0,0-9.9,0,1,1,0,0,1-.86.5H14.1Z"/><path class="cls-1" d="M41.08,5.69H32a1,1,0,0,1,0-2h9.07a1,1,0,0,1,0,2Z"/><path class="cls-1" d="M28.41,5.69H22.93a1,1,0,1,1,0-2h5.48a1,1,0,0,1,0,2Z"/><path class="cls-1" d="M61.56,39h-.09a1,1,0,0,1-.91-1.08L61.43,28a1,1,0,1,1,2,.17l-.86,9.88A1,1,0,0,1,61.56,39Z"/><path class="cls-1" d="M57.44,66H40.67a2.91,2.91,0,0,1-2.61-1.62,1,1,0,0,1,1.8-.89.88.88,0,0,0,.81.51H57.44a.9.9,0,0,0,.9-.83l.88-10a1,1,0,0,1,2,.18l-.87,9.94A2.9,2.9,0,0,1,57.44,66Z"/><path class="cls-1" d="M65,29.12H43.72a1,1,0,0,1,0-2H64V25.49a1,1,0,0,0-1-1H60.68a1,1,0,0,1-1-1A1.54,1.54,0,0,0,58.14,22H43.24a1,1,0,0,1,0-2h14.9a3.56,3.56,0,0,1,3.4,2.54H63a3,3,0,0,1,3,3v2.63A1,1,0,0,1,65,29.12Z"/><path class="cls-1" d="M61.23,54.31H40.31a1,1,0,0,1,0-2h20L61.48,39H43.12a1,1,0,0,1,0-2H62.57a1,1,0,0,1,1,1.09L62.22,53.4A1,1,0,0,1,61.23,54.31Z"/><path class="cls-1" d="M49.06,51.28A5.63,5.63,0,0,1,44.52,49H42.27a1,1,0,0,1,0-2h2.79a1,1,0,0,1,.86.5,3.62,3.62,0,0,0,6.27,0,1,1,0,0,1,.86-.5h2.63V44.35H53.05a1,1,0,0,1-.86-.5,3.62,3.62,0,0,0-6.27,0,1,1,0,0,1-.86.5H42.68a1,1,0,0,1,0-2h1.84a5.61,5.61,0,0,1,9.07,0h3.09a1,1,0,0,1,1,1V48a1,1,0,0,1-1,1H53.59A5.63,5.63,0,0,1,49.06,51.28Z"/><path class="cls-1" d="M49.06,22a1,1,0,0,1-1-1V15.15a1,1,0,0,1,.29-.71l2.9-2.91A1,1,0,1,1,52.67,13l-2.61,2.61V21A1,1,0,0,1,49.06,22Z"/></g></g></svg>