<svg xmlns="http://www.w3.org/2000/svg" viewBox="0 0 64.4 66"><defs><style>.cls-1{fill:#ec2027;}</style></defs><title>Asset 150</title><g id="Layer_2" data-name="Layer 2"><g id="ICON"><path class="cls-1" d="M23.85,48.21a1,1,0,0,1-1-.68,1,1,0,0,1,.63-1.27,12,12,0,0,0,1.73-22A13.21,13.21,0,0,1,19.51,18a5.35,5.35,0,0,0-7.09-2.6L9.55,16.73a5.36,5.36,0,0,0-2.61,7.09,13.19,13.19,0,0,1,1,8.41A12,12,0,0,0,11.7,43.89a1,1,0,1,1-1.32,1.5A14.05,14.05,0,0,1,6,31.78a11.16,11.16,0,0,0-.85-7.12,7.36,7.36,0,0,1,3.59-9.74l2.87-1.33a7.35,7.35,0,0,1,9.74,3.58,11.19,11.19,0,0,0,4.86,5.26,14,14,0,0,1,7,8.46,14,14,0,0,1-9,17.26A1,1,0,0,1,23.85,48.21Z"/><path class="cls-1" d="M7.44,7.85a1,1,0,0,1-.91-.58A2.38,2.38,0,0,0,3.38,6.11,1,1,0,1,1,2.54,4.3a4.36,4.36,0,0,1,5.8,2.13,1,1,0,0,1-.49,1.33A1,1,0,0,1,7.44,7.85Z"/><path class="cls-1" d="M7.83,17.64a1,1,0,0,1-.91-.58L4.86,12.6A4.37,4.37,0,0,1,.27,6.76,4.36,4.36,0,0,1,5.42,4,4.39,4.39,0,0,1,7.5,2a4.36,4.36,0,0,1,4.81,7.14l2.07,4.46a1,1,0,0,1-1.82.84l-2.4-5.19A1,1,0,0,1,10.55,8a2.36,2.36,0,0,0-.4-4.24A2.38,2.38,0,0,0,7,5.53a1,1,0,0,1-.56.72,1,1,0,0,1-.91,0,2.36,2.36,0,1,0-.43,4.29A1,1,0,0,1,6.34,11l2.39,5.19a1,1,0,0,1-.49,1.33A1,1,0,0,1,7.83,17.64Z"/><path class="cls-1" d="M18.26,38.92a1,1,0,0,1-.91-.58A.67.67,0,0,0,17,38a.69.69,0,0,0-.51,0,1,1,0,1,1-.84-1.81,2.67,2.67,0,0,1,3.54,1.3,1,1,0,0,1-.49,1.33A1.06,1.06,0,0,1,18.26,38.92Z"/><path class="cls-1" d="M18,33.33a1,1,0,0,1-.91-.58.66.66,0,0,0-.88-.32,1,1,0,1,1-.84-1.82,2.67,2.67,0,0,1,3.54,1.31,1,1,0,0,1-.49,1.32A1.06,1.06,0,0,1,18,33.33Z"/><path class="cls-1" d="M23.42,36.54a1,1,0,0,1-.91-.59.65.65,0,0,0-.37-.34.69.69,0,0,0-.51,0,1,1,0,0,1-.84-1.82,2.67,2.67,0,0,1,3.54,1.31,1,1,0,0,1-.49,1.32A.92.92,0,0,1,23.42,36.54Z"/><path class="cls-1" d="M48.9,43.47a12.26,12.26,0,0,1-2.55-.26A12.69,12.69,0,0,1,36.9,26.8a12.51,12.51,0,0,1,4.91-6.49,10,10,0,0,0,3.77-5.13A6.69,6.69,0,0,1,54,10.93l2.69.89A6.7,6.7,0,0,1,61,20.26a9.9,9.9,0,0,0,0,6.36,12.62,12.62,0,0,1-.64,9.87A12.79,12.79,0,0,1,48.9,43.47Zm3-30.88a4.68,4.68,0,0,0-4.43,3.21A11.94,11.94,0,0,1,42.93,22a10.53,10.53,0,0,0-4.13,5.47,10.73,10.73,0,0,0,.88,8.68,10.61,10.61,0,0,0,7.09,5.14h0A10.74,10.74,0,0,0,58.49,35.6,10.63,10.63,0,0,0,59,27.28a11.93,11.93,0,0,1,0-7.65,4.69,4.69,0,0,0-3-5.91l-2.7-.89A4.68,4.68,0,0,0,51.91,12.59Z"/><path class="cls-1" d="M58.09,6a.84.84,0,0,1-.31,0,1,1,0,0,1-.64-1.26A2,2,0,0,0,55.86,2.1,1,1,0,1,1,56.48.21,4,4,0,0,1,59,5.29,1,1,0,0,1,58.09,6Z"/><path class="cls-1" d="M57.64,14.37a1.12,1.12,0,0,1-.31,0,1,1,0,0,1-.64-1.27L58.3,8.19a1,1,0,0,1,1.16-.66,2,2,0,1,0-.78-3.6,1,1,0,0,1-.9.14,1,1,0,0,1-.64-.65A2,2,0,0,0,55.86,2.1a2,2,0,0,0-1.55.12,2,2,0,0,0,.07,3.63,1,1,0,0,1,.53,1.22L53.3,11.93a1,1,0,1,1-1.9-.63l1.36-4.11a4,4,0,0,1,3.72-7,4,4,0,0,1,2.06,1.56A4,4,0,1,1,60,9.57l-1.36,4.11A1,1,0,0,1,57.64,14.37Z"/><path class="cls-1" d="M46.15,32.93a.84.84,0,0,1-.31,0,1,1,0,0,1-.64-1.26.46.46,0,0,0,0-.38.43.43,0,0,0-.28-.24,1,1,0,1,1,.63-1.9,2.49,2.49,0,0,1,1.58,3.15A1,1,0,0,1,46.15,32.93Z"/><path class="cls-1" d="M49.41,29.13a.91.91,0,0,1-.32-.06,1,1,0,0,1-.63-1.26.5.5,0,0,0-.31-.62,1,1,0,0,1,.62-1.9,2.49,2.49,0,0,1,1.59,3.15A1,1,0,0,1,49.41,29.13Z"/><path class="cls-1" d="M51,34.53a.89.89,0,0,1-.32-.05A1,1,0,0,1,50,33.22a.5.5,0,0,0-.31-.62,1,1,0,0,1-.64-1.27,1,1,0,0,1,1.26-.63,2.49,2.49,0,0,1,1.59,3.15A1,1,0,0,1,51,34.53Z"/><path class="cls-1" d="M43.53,47.7A1,1,0,0,1,42.79,46,10.44,10.44,0,0,0,45,42a1,1,0,1,1,1.91.57,12.34,12.34,0,0,1-2.65,4.75A1,1,0,0,1,43.53,47.7Z"/><path class="cls-1" d="M29.16,26.25a.55.55,0,0,1-.18,0,1,1,0,0,1-.8-1.16c0-.23.07-.46.1-.7a6.68,6.68,0,0,1,7.39-5.88l2.82.32a6.62,6.62,0,0,1,3.84,1.78,1,1,0,0,1,0,1.41A1,1,0,0,1,41,22a4.68,4.68,0,0,0-2.68-1.25l-2.82-.32a4.71,4.71,0,0,0-3.45,1,4.63,4.63,0,0,0-1.73,3.13c0,.29-.07.56-.12.84A1,1,0,0,1,29.16,26.25Z"/><path class="cls-1" d="M38.44,12.82h-.12a1,1,0,0,1-.88-1.1,2,2,0,0,0-1.78-2.24,1,1,0,1,1,.23-2,4,4,0,0,1,3.54,4.45A1,1,0,0,1,38.44,12.82Z"/><path class="cls-1" d="M39.72,21.12H39.6A1,1,0,0,1,38.72,20l.58-5.09a1,1,0,0,1,1-.88,2,2,0,0,0,.23-4,2,2,0,0,0-1.72.66A1,1,0,0,1,38,11a1,1,0,0,1-.76-.51,2,2,0,0,0-3.77.76A2,2,0,0,0,35,13.43a1,1,0,0,1,.77,1.09l-.57,5.09a1,1,0,0,1-2-.23l.49-4.3a4,4,0,1,1,4.54-6.49A4,4,0,0,1,40.75,8a4,4,0,0,1,.45,7.9l-.49,4.31A1,1,0,0,1,39.72,21.12Z"/><path class="cls-1" d="M37.34,42.23h-.11a1,1,0,0,1-.88-1.11.5.5,0,0,0-.44-.54,1,1,0,1,1,.23-2,2.49,2.49,0,0,1,2.19,2.76A1,1,0,0,1,37.34,42.23Z"/><path class="cls-1" d="M31.54,20.71a1,1,0,0,1-.93-.62,11.5,11.5,0,0,1-.7-2.62,3.95,3.95,0,0,0-4.48-3.36L23,14.46a4,4,0,0,0-2.75,1.75,1,1,0,1,1-1.67-1.1,5.92,5.92,0,0,1,4.14-2.63l2.46-.35a5.95,5.95,0,0,1,6.74,5.06,9.23,9.23,0,0,0,.58,2.15,1,1,0,0,1-.55,1.3A1,1,0,0,1,31.54,20.71Z"/><path class="cls-1" d="M23.57,7.35a1,1,0,0,1-1-.85,1.63,1.63,0,0,0-1.85-1.4,1,1,0,0,1-.29-2,3.64,3.64,0,0,1,4.12,3.09,1,1,0,0,1-.84,1.13Z"/><path class="cls-1" d="M21.67,14.79a1,1,0,0,1-1-.86l-.52-3.66a3.64,3.64,0,0,1,.28-7.15,3.69,3.69,0,0,1,2.22.39A3.64,3.64,0,1,1,27,9.3L27.48,13a1,1,0,1,1-2,.29l-.63-4.43A1,1,0,0,1,25.6,7.7,1.63,1.63,0,0,0,25,4.5a1.62,1.62,0,0,0-1.22.87,1,1,0,0,1-.74.52,1,1,0,0,1-.86-.3,1.64,1.64,0,0,0-1.41-.49A1.65,1.65,0,0,0,19.33,7,1.62,1.62,0,0,0,21,8.35a1,1,0,0,1,1,.86l.63,4.43a1,1,0,0,1-.85,1.14Z"/><path class="cls-1" d="M32.2,48.61C14.14,48.61,0,43.25,0,36.4,0,33.62,2.25,31,6.49,28.93a1,1,0,1,1,.89,1.79C3.91,32.44,2,34.46,2,36.4c0,4.93,12.14,10.21,30.2,10.21S62.4,41.33,62.4,36.4c0-1.27-.78-2.54-2.32-3.78a1,1,0,0,1-.15-1.4,1,1,0,0,1,1.41-.15c2,1.63,3.06,3.43,3.06,5.33C64.4,43.25,50.25,48.61,32.2,48.61Z"/><path class="cls-1" d="M32.2,66a71.77,71.77,0,0,1-20.9-2.84,7.64,7.64,0,0,1-5-5.19L.73,39a1,1,0,0,1,1.92-.57L8.2,57.41a5.67,5.67,0,0,0,3.7,3.85A69.82,69.82,0,0,0,32.2,64a69.82,69.82,0,0,0,20.3-2.74,5.67,5.67,0,0,0,3.7-3.85l5.55-18.94A1,1,0,0,1,63,37.79,1,1,0,0,1,63.67,39L58.12,58a7.64,7.64,0,0,1-5,5.19A71.82,71.82,0,0,1,32.2,66Z"/><path class="cls-1" d="M32.2,62.42c-5.94,0-10.89-1.63-12.63-4.11a49,49,0,0,1-14-4.06A1,1,0,0,1,5,53.64l-1.7-5.8a1,1,0,0,1,1.66-1c2.05,2,7.44,4.57,16.43,5.81,2.45-1.55,6.44-2.46,10.8-2.46s8.35.91,10.8,2.46c9-1.24,14.38-3.81,16.43-5.81a1,1,0,0,1,1.66,1l-1.7,5.8a1,1,0,0,1-.51.61,49,49,0,0,1-14.05,4.06C43.09,60.79,38.14,62.42,32.2,62.42ZM6.8,52.65A48.5,48.5,0,0,0,20.32,56.4a1,1,0,0,1,.75.53c.88,1.69,5.08,3.49,11.13,3.49s10.25-1.8,11.13-3.49a1,1,0,0,1,.75-.53A48.5,48.5,0,0,0,57.6,52.65l.74-2.54c-3.53,2.08-9,3.72-15.45,4.57a1,1,0,0,1-.7-.17c-2.06-1.43-5.88-2.32-10-2.32s-7.94.89-10,2.32a1,1,0,0,1-.7.17c-6.43-.85-11.92-2.49-15.45-4.57Z"/></g></g></svg>