<svg xmlns="http://www.w3.org/2000/svg" viewBox="0 0 66 66"><defs><style>.cls-1{fill:#ec2027;}</style></defs><title>Asset 110</title><g id="Layer_2" data-name="Layer 2"><g id="ICON"><path class="cls-1" d="M17.91,66a3.63,3.63,0,0,1-3.52-2.59L2.93,26.75a1,1,0,0,1,.14-.89,1,1,0,0,1,.81-.41H31.94a1,1,0,0,1,.81.41,1,1,0,0,1,.15.89L21.44,63.41A3.65,3.65,0,0,1,17.91,66ZM5.24,27.45,16.3,62.81A1.64,1.64,0,0,0,17.91,64a1.66,1.66,0,0,0,1.62-1.19l11-35.36Z"/><path class="cls-1" d="M32.63,27.45H3.2a3.19,3.19,0,0,1-.62-6.33,8.13,8.13,0,0,1-1.31-4.47,16.65,16.65,0,1,1,33.29,0,8.14,8.14,0,0,1-1,4.56,3.2,3.2,0,0,1-1,6.24ZM3.2,23.06a1.2,1.2,0,1,0,0,2.39H32.63a1.2,1.2,0,0,0,0-2.39H22.78a1,1,0,0,1,0-2H31c1.52-1.09,1.52-2.64,1.52-4.41a14.65,14.65,0,1,0-29.29,0,5.26,5.26,0,0,0,2.25,4.54A1,1,0,0,1,5,23.06Z"/><path class="cls-1" d="M20,23.06H17.65a1,1,0,0,1,0-2H20a1,1,0,0,1,0,2Z"/><path class="cls-1" d="M15.34,64.11a1,1,0,0,1-.95-.7L2.93,26.75a1,1,0,1,1,1.9-.59L16.3,62.81a1,1,0,0,1-.66,1.26A1,1,0,0,1,15.34,64.11Z"/><path class="cls-1" d="M22,58.68a1,1,0,0,1-1-.7L11.23,26.75a1,1,0,0,1,.65-1.25,1,1,0,0,1,1.26.66L22.9,57.38a1,1,0,0,1-.95,1.3Z"/><path class="cls-1" d="M26.21,45.78a1,1,0,0,1-.95-.7L19.53,26.75a1,1,0,0,1,.65-1.25,1,1,0,0,1,1.26.66l5.73,18.32a1,1,0,0,1-.66,1.26A1,1,0,0,1,26.21,45.78Z"/><path class="cls-1" d="M15.05,63.16a1,1,0,0,1-.3,0,1,1,0,0,1-.66-1.25L25.26,26.16a1,1,0,0,1,1.91.59L16,62.46A1,1,0,0,1,15.05,63.16Z"/><path class="cls-1" d="M10.9,49.89a1,1,0,0,1-.3,0,1,1,0,0,1-.66-1.26l7-22.43a1,1,0,0,1,1.91.59l-7,22.44A1,1,0,0,1,10.9,49.89Z"/><path class="cls-1" d="M22.89,6.27a1,1,0,0,1-.41-.08,11.77,11.77,0,0,0-4.83-1,1,1,0,0,1,0-2,13.91,13.91,0,0,1,5.65,1.2,1,1,0,0,1-.41,1.91Z"/><path class="cls-1" d="M30.14,14.73a1,1,0,0,1-1-.74,12,12,0,0,0-4.57-6.58,1,1,0,0,1,1.17-1.62,14,14,0,0,1,5.33,7.68,1,1,0,0,1-.71,1.22A.75.75,0,0,1,30.14,14.73Z"/><path class="cls-1" d="M48.77,66a3.25,3.25,0,0,1-3.15-2.32L35.83,32.36a1,1,0,0,1,.15-.89,1,1,0,0,1,.8-.41h24a1,1,0,0,1,.81.41,1,1,0,0,1,.15.89l-9.8,31.32A3.24,3.24,0,0,1,48.77,66ZM38.14,33.06l9.39,30a1.31,1.31,0,0,0,2.49,0l9.38-30Z"/><path class="cls-1" d="M41.71,33.06a9.14,9.14,0,0,1-7.44-3.85,1,1,0,1,1,1.63-1.15,7.11,7.11,0,1,0,1.16-9.49,1,1,0,0,1-1.31-1.51,9.11,9.11,0,1,1,6,16Z"/><path class="cls-1" d="M44.27,17.22a1,1,0,0,1-1-1,9.11,9.11,0,0,1,17.5-3.55A1,1,0,0,1,60.24,14a1,1,0,0,1-1.31-.53,7.11,7.11,0,0,0-13.66,2.77A1,1,0,0,1,44.27,17.22Z"/><path class="cls-1" d="M56.89,33.06a9.1,9.1,0,0,1-8.4-5.56,1,1,0,0,1,1.84-.78,7.11,7.11,0,1,0,2.58-8.67,1,1,0,1,1-1.12-1.65,9.11,9.11,0,1,1,5.1,16.66Z"/><path class="cls-1" d="M45.85,25a1,1,0,0,1-1-1,3.15,3.15,0,0,0-3.14-3.14,1,1,0,0,1,0-2A5.14,5.14,0,0,1,46.85,24,1,1,0,0,1,45.85,25Z"/><path class="cls-1" d="M59.34,37.62H51.65a1,1,0,0,1,0-2h7.69a1,1,0,0,1,0,2Z"/><path class="cls-1" d="M48.51,37.62H45.44a1,1,0,0,1,0-2h3.07a1,1,0,0,1,0,2Z"/></g></g></svg>