<svg xmlns="http://www.w3.org/2000/svg" viewBox="0 0 265.56 49.03"><defs><style>.cls-1{fill:#1985ce;}.cls-2{fill:#ed1c24;}</style></defs><title>Asset 6</title><g id="Layer_2" data-name="Layer 2"><g id="Layer_1-2" data-name="Layer 1"><path class="cls-1" d="M34.7,7a1.46,1.46,0,0,1,.63,1.17,1.77,1.77,0,0,1-.76,1.59,3.94,3.94,0,0,1-2.38.4c-2.44-.15-4.35-.26-5.72-.31s-3.16-.1-5.39-.12q-1.5,6.12-2.77,12.3c-.29,1.51-.61,3.26-.93,5.24s-.54,3.59-.65,4.8a1.81,1.81,0,0,1-1,1.48,4.21,4.21,0,0,1-2.16.52,3.52,3.52,0,0,1-2.07-.53,1.66,1.66,0,0,1-.74-1.4,19.33,19.33,0,0,1,.31-2.64c.2-1.23.44-2.52.71-3.88s.53-2.52.69-3.52q.45-2.54,1-5c.38-1.67.76-3.24,1.14-4.72.08-.34.18-.72.29-1.15s.23-.92.36-1.45A42.24,42.24,0,0,0,9,10.29,7.51,7.51,0,0,0,5.8,11.51a2.47,2.47,0,0,0-1,2,3.42,3.42,0,0,0,.82,2.16.85.85,0,0,1,.16.5c0,.42-.3.81-.92,1.18A3.59,3.59,0,0,1,3,17.91a1.88,1.88,0,0,1-1.14-.33A4.26,4.26,0,0,1,.53,16,5.2,5.2,0,0,1,0,13.59,5.4,5.4,0,0,1,2.26,9.05,16,16,0,0,1,9.14,6.54,72.12,72.12,0,0,1,21,5.74c3,0,5.37,0,7.14.13s3.33.23,4.66.43A4.27,4.27,0,0,1,34.7,7Z"/><path class="cls-1" d="M52.32,26.89a1.76,1.76,0,0,1,.3,1.09,2.74,2.74,0,0,1-.77,2.07A20.49,20.49,0,0,1,48,32.94a8.89,8.89,0,0,1-4.49,1.13,4.49,4.49,0,0,1-3.14-1,3.71,3.71,0,0,1-1.06-2.84,17.28,17.28,0,0,1,.57-3.33A13.83,13.83,0,0,0,40.41,24c0-.36-.15-.53-.44-.53s-.86.37-1.51,1.11a15.57,15.57,0,0,0-2,2.94,20.75,20.75,0,0,0-1.59,3.86,3.55,3.55,0,0,1-3.83,2.66,1.64,1.64,0,0,1-1.6-.72,5.86,5.86,0,0,1-.39-2.57c0-.71,0-1.28,0-1.7l0-2.66a47.68,47.68,0,0,1,1.28-10.67,28.43,28.43,0,0,1,3.79-9.33q2.51-3.76,6-3.77a3.82,3.82,0,0,1,3,1.31,4.93,4.93,0,0,1,1.16,3.41,12.59,12.59,0,0,1-2.4,7,47.08,47.08,0,0,1-7.81,8.43c-.08,1.16-.13,2.34-.13,3.56a18.31,18.31,0,0,1,3-4.6,10.92,10.92,0,0,1,3.25-2.55,6.94,6.94,0,0,1,2.95-.76c1.77,0,2.65.72,2.65,2.16a22.15,22.15,0,0,1-.9,4.69,19.56,19.56,0,0,0-.77,3.82c0,.89.39,1.33,1.18,1.33a3.49,3.49,0,0,0,1.93-.81,29.5,29.5,0,0,0,3-2.65,1.57,1.57,0,0,1,1.1-.46A1,1,0,0,1,52.32,26.89ZM37.77,7.65A24.54,24.54,0,0,0,36,12.27a52,52,0,0,0-1.37,6.34,23.69,23.69,0,0,0,4.18-5.29,10.66,10.66,0,0,0,1.64-5.19,3.73,3.73,0,0,0-.28-1.63.89.89,0,0,0-.81-.56C38.91,5.94,38.36,6.51,37.77,7.65Z"/><path class="cls-1" d="M70.9,24.13a2,2,0,0,1,.28,1.09c0,1.07-.39,1.7-1.18,1.9a22.25,22.25,0,0,1-5.37.8,8.14,8.14,0,0,1-3,4.47,9.12,9.12,0,0,1-9.35.72,6.68,6.68,0,0,1-2.62-2.57,6.89,6.89,0,0,1-.9-3.45,8.61,8.61,0,0,1,1.19-4.51,8.2,8.2,0,0,1,3.25-3.09,9.6,9.6,0,0,1,4.6-1.12,7.11,7.11,0,0,1,5,1.75A6.82,6.82,0,0,1,65,24.43a29.72,29.72,0,0,0,4.56-.67,3.25,3.25,0,0,1,.57-.06A.94.94,0,0,1,70.9,24.13ZM59,29.68a4.37,4.37,0,0,0,1.28-2.49,5.09,5.09,0,0,1-1.93-1.83,4.61,4.61,0,0,1-.67-2.4,4.79,4.79,0,0,1,.12-1.06h-.2a3.4,3.4,0,0,0-2.71,1.28,5.44,5.44,0,0,0-1.08,3.61,4,4,0,0,0,.88,2.79,2.68,2.68,0,0,0,2,1A3.24,3.24,0,0,0,59,29.68Z"/><path class="cls-1" d="M68.39,32.74a10.63,10.63,0,0,1-.63-4.26,22.41,22.41,0,0,1,1.51-8.21,2.55,2.55,0,0,1,1.2-1.41,5,5,0,0,1,2.34-.45,2.8,2.8,0,0,1,1.14.16.67.67,0,0,1,.32.64,10.5,10.5,0,0,1-.61,2.39c-.27.89-.49,1.66-.65,2.31a19.66,19.66,0,0,0-.41,2.45A16.92,16.92,0,0,1,75.23,22a11.46,11.46,0,0,1,3.13-2.68,6.3,6.3,0,0,1,3-.88,3,3,0,0,1,2,.53A2.09,2.09,0,0,1,84,20.57a17.91,17.91,0,0,1-.77,3.86c-.22.79-.37,1.39-.45,1.79a16.35,16.35,0,0,1,4.52-5.95,7.89,7.89,0,0,1,4.64-1.86q2.64,0,2.64,2.16a22.61,22.61,0,0,1-.89,4.69,19.07,19.07,0,0,0-.78,3.82c0,.89.4,1.33,1.18,1.33A3.54,3.54,0,0,0,96,29.6,31.86,31.86,0,0,0,99,27a1.54,1.54,0,0,1,1.1-.46,1,1,0,0,1,.83.4,1.77,1.77,0,0,1,.31,1.09,2.71,2.71,0,0,1-.78,2.07,17,17,0,0,1-3.76,2.89,9.25,9.25,0,0,1-4.58,1.13,4.46,4.46,0,0,1-3.13-1A3.67,3.67,0,0,1,88,30.25a17.28,17.28,0,0,1,.57-3.33A14.56,14.56,0,0,0,89.05,24c0-.36-.15-.53-.45-.53s-.86.37-1.51,1.11a15.57,15.57,0,0,0-2,2.94,21.45,21.45,0,0,0-1.59,3.86,4.64,4.64,0,0,1-1,2.13,2.79,2.79,0,0,1-1.89.53,2.22,2.22,0,0,1-2-1,4.58,4.58,0,0,1-.67-2.54,23.73,23.73,0,0,1,.4-3.66A23.67,23.67,0,0,0,78.67,24c0-.36-.15-.53-.45-.53s-.92.39-1.55,1.19a16.81,16.81,0,0,0-1.81,3.06,25.55,25.55,0,0,0-1.4,3.66,4.81,4.81,0,0,1-1,2.11,2.62,2.62,0,0,1-1.85.55A2.22,2.22,0,0,1,68.39,32.74Z"/><path class="cls-1" d="M99.12,32.69A5.14,5.14,0,0,1,98,29.25a23.92,23.92,0,0,1,.4-4.57,24.64,24.64,0,0,1,1.35-4.41,2.79,2.79,0,0,1,1.14-1.43,4.72,4.72,0,0,1,2.32-.43,2.44,2.44,0,0,1,1.24.23.79.79,0,0,1,.34.7,10.62,10.62,0,0,1-.44,1.79c-.27.82-.49,1.57-.65,2.23a25.58,25.58,0,0,0-.82,4.66,1.72,1.72,0,0,0,.21,1,.73.73,0,0,0,.65.28c.4,0,.91-.33,1.52-1a14.21,14.21,0,0,0,2-3,35.73,35.73,0,0,0,2-5,2.56,2.56,0,0,1,1-1.43,3.75,3.75,0,0,1,2-.43,3.22,3.22,0,0,1,1.3.18.68.68,0,0,1,.37.68,26.69,26.69,0,0,1-1,4.56,30.9,30.9,0,0,0-1.14,5.25,1.37,1.37,0,0,0,.33,1,1.09,1.09,0,0,0,.85.35,3.51,3.51,0,0,0,1.94-.81,31.86,31.86,0,0,0,3-2.65,1.54,1.54,0,0,1,1.1-.46,1,1,0,0,1,.83.4,1.77,1.77,0,0,1,.31,1.09,2.71,2.71,0,0,1-.78,2.07,17,17,0,0,1-3.76,2.89,9.23,9.23,0,0,1-4.58,1.13,3.35,3.35,0,0,1-2.87-1.23,5.7,5.7,0,0,1-.91-3.46,7.46,7.46,0,0,1-2.08,3.48,4.41,4.41,0,0,1-3,1.21A3.72,3.72,0,0,1,99.12,32.69Z"/><path class="cls-1" d="M121.09,34A2.23,2.23,0,0,1,120,32.21a1.87,1.87,0,0,1,.77-1.5,3.52,3.52,0,0,1,2.28-.63,12.32,12.32,0,0,1,1.24.08l1.08.12a3.74,3.74,0,0,0-.47-1.63,7.64,7.64,0,0,0-1.08-1.48c-.43-.48-.84-.89-1.22-1.25a21.76,21.76,0,0,1-2.5,3.26,25.57,25.57,0,0,1-2.71,2.46,2.4,2.4,0,0,1-1.54.6,1.5,1.5,0,0,1-1.06-.38,1.26,1.26,0,0,1-.41-.95,1.72,1.72,0,0,1,.57-1.23l.53-.53a44.89,44.89,0,0,0,3.38-3.73,20.79,20.79,0,0,0,1.48-2.29c.5-.89,1.16-2.1,2-3.62q.77-1.47,3.21-1.47a5.18,5.18,0,0,1,1.59.17c.3.11.45.29.45.53a2.12,2.12,0,0,1-.17.63,4.51,4.51,0,0,1-.45.87,4.15,4.15,0,0,0-.73,2,2,2,0,0,0,.43,1.1,13,13,0,0,0,1.32,1.5,21,21,0,0,1,2,2.38,3.76,3.76,0,0,1,.67,2.14,4.83,4.83,0,0,1-.8,2.64,5.7,5.7,0,0,1-2.21,2,6.79,6.79,0,0,1-3.26.76A5.57,5.57,0,0,1,121.09,34Z"/><path class="cls-1" d="M217.76,27a1.7,1.7,0,0,1,.31,1.05,2.11,2.11,0,0,1-.29,1.19,2.45,2.45,0,0,1-.89.77q-2.4,1.29-7.65,4.26a35.21,35.21,0,0,1-4.11,10.84q-2.53,3.95-6.39,4a5.26,5.26,0,0,1-3.38-1,3.36,3.36,0,0,1-1.3-2.75,6.67,6.67,0,0,1,.85-3.16,15,15,0,0,1,3.2-3.69,51.62,51.62,0,0,1,6.61-4.79l.12-.63a19.51,19.51,0,0,1-6.31,1.1,20.48,20.48,0,0,1-8-1.45,12.25,12.25,0,0,1-5.38-4.1,10.38,10.38,0,0,1-1.91-6.19,16.45,16.45,0,0,1,2.28-8.69,15.6,15.6,0,0,1,6.29-5.86,19.24,19.24,0,0,1,9-2.07q4.77,0,7.14,1.81a5.73,5.73,0,0,1,2.38,4.8,5.2,5.2,0,0,1-.87,3.15,2.94,2.94,0,0,1-2.5,1.18,3.18,3.18,0,0,1-1.77-.44,1.33,1.33,0,0,1-.68-1.19,6.65,6.65,0,0,1,.17-1.13,6.27,6.27,0,0,0,.24-1.47,2.51,2.51,0,0,0-1-2.16,6,6,0,0,0-3.48-.76,11.28,11.28,0,0,0-5.51,1.39,10.36,10.36,0,0,0-4.09,4.18,13.49,13.49,0,0,0-1.55,6.66,7.51,7.51,0,0,0,2.67,6.17q2.67,2.18,7.71,2.18a18.2,18.2,0,0,0,5.86-1L206,25h-4.15a2.92,2.92,0,0,1-1.75-.45,1.7,1.7,0,0,1-.61-1.48,1.82,1.82,0,0,1,.61-1.46,2.42,2.42,0,0,1,1.63-.53h7.61a2.27,2.27,0,0,1,1.48.48,1.4,1.4,0,0,1,.47,1.38c-.08.71-.35,2.32-.81,4.82l-.45,2.53q3.25-2,5.94-3.46a2.12,2.12,0,0,1,.94-.27A1,1,0,0,1,217.76,27ZM201.5,43.85a22.54,22.54,0,0,0,2.36-6.32,21,21,0,0,0-4.45,3.9A5.32,5.32,0,0,0,198,44.51c0,.87.38,1.3,1.14,1.3S200.66,45.15,201.5,43.85Z"/><path class="cls-1" d="M215.85,32.74a10.63,10.63,0,0,1-.63-4.26,22.61,22.61,0,0,1,1.5-8.21,2.6,2.6,0,0,1,1.21-1.41,4.94,4.94,0,0,1,2.33-.45,2.82,2.82,0,0,1,1.15.16.67.67,0,0,1,.32.64,10.5,10.5,0,0,1-.61,2.39c-.27.89-.49,1.66-.65,2.33a20.19,20.19,0,0,0-.41,2.46,18.29,18.29,0,0,1,3-4.66,11.44,11.44,0,0,1,3.28-2.56,6.9,6.9,0,0,1,3-.76c1.76,0,2.65.72,2.65,2.16a14.42,14.42,0,0,1-.37,2.09,10.19,10.19,0,0,0-.33,1.67c0,.77.34,1.16,1,1.16A5.23,5.23,0,0,0,235.2,24a1.7,1.7,0,0,1,1.1-.43,1,1,0,0,1,.83.38,1.52,1.52,0,0,1,.31,1,2.42,2.42,0,0,1-.81,1.93A11.38,11.38,0,0,1,234,28.57a7.94,7.94,0,0,1-3.24.68,5.12,5.12,0,0,1-3.27-.9,2.94,2.94,0,0,1-1.12-2.43,4.34,4.34,0,0,1,.12-1,7.4,7.4,0,0,0,.08-.89c0-.36-.15-.53-.44-.53s-1,.37-1.61,1.11a15.1,15.1,0,0,0-2,2.94,20.72,20.72,0,0,0-1.58,3.86,4.81,4.81,0,0,1-1,2.11,2.62,2.62,0,0,1-1.85.55A2.22,2.22,0,0,1,215.85,32.74Z"/><path class="cls-1" d="M252.64,26.89A1.77,1.77,0,0,1,253,28a2.71,2.71,0,0,1-.78,2.07,15,15,0,0,1-4.25,2.76A13.93,13.93,0,0,1,242,34.07a10.28,10.28,0,0,1-6.63-1.9A6.27,6.27,0,0,1,233,27a8.29,8.29,0,0,1,1.18-4.28,8.69,8.69,0,0,1,3.28-3.14,9.67,9.67,0,0,1,4.74-1.16A5.83,5.83,0,0,1,246,19.56a3.76,3.76,0,0,1,1.42,3.1,4.94,4.94,0,0,1-2,3.94q-2,1.65-6.82,2.61,1,1.53,3.87,1.53a10.35,10.35,0,0,0,4.17-1A13.61,13.61,0,0,0,250.71,27a1.54,1.54,0,0,1,1.1-.46A1,1,0,0,1,252.64,26.89ZM239,23.1a5.65,5.65,0,0,0-1,3.45v.07a10.11,10.11,0,0,0,3.78-1.4,2.62,2.62,0,0,0,1.39-2.16,1.27,1.27,0,0,0-.43-1,1.64,1.64,0,0,0-1.16-.38A3,3,0,0,0,239,23.1Z"/><path class="cls-1" d="M265.2,18.61a.69.69,0,0,1,.36.66A48.94,48.94,0,0,1,264.5,25c-.62,3.12-1,5-1.1,5.55A46.28,46.28,0,0,1,259.25,44q-2.64,5-7,5a5.28,5.28,0,0,1-3.38-1,3.39,3.39,0,0,1-1.3-2.75,6.66,6.66,0,0,1,.88-3.19,14.85,14.85,0,0,1,3.25-3.74,51.88,51.88,0,0,1,6.74-4.84l.12-.76c.19-.82.41-2,.65-3.53a8,8,0,0,1-2.28,3.64,4.71,4.71,0,0,1-3.09,1.25,3.72,3.72,0,0,1-3-1.38,5.19,5.19,0,0,1-1.16-3.44,23.11,23.11,0,0,1,.41-4.57,23.78,23.78,0,0,1,1.34-4.41,2.79,2.79,0,0,1,1.14-1.43,4.72,4.72,0,0,1,2.32-.43,2.44,2.44,0,0,1,1.24.23.79.79,0,0,1,.34.7,11.86,11.86,0,0,1-.44,1.79c-.27.82-.49,1.57-.65,2.23q-.33,1.37-.57,2.61a10.62,10.62,0,0,0-.25,2.05c0,.84.29,1.26.86,1.26.4,0,.91-.33,1.52-1a14.21,14.21,0,0,0,2-3,35.73,35.73,0,0,0,2-5,2.56,2.56,0,0,1,1-1.43,3.75,3.75,0,0,1,2-.43A2.91,2.91,0,0,1,265.2,18.61ZM254.94,43.88a24.89,24.89,0,0,0,2.52-6.42,21.35,21.35,0,0,0-4.54,3.94,5.38,5.38,0,0,0-1.4,3.11,1.51,1.51,0,0,0,.27.93,1,1,0,0,0,.87.37C253.34,45.81,254.1,45.16,254.94,43.88Z"/><path class="cls-2" d="M165.78,34.56l10.68-19A10.44,10.44,0,0,0,167.23,0l-21.8.26A10.44,10.44,0,0,0,136.58,16l11.13,18.75A10.43,10.43,0,0,0,165.78,34.56Zm-10.1-16h1.08A10.43,10.43,0,0,1,166,34.14h0a10.43,10.43,0,0,1-18.88-1.45c-2.36-6.43-1.92-12.24,6.89-13.93A10.39,10.39,0,0,1,155.68,18.61Z"/></g></g></svg>