<svg xmlns="http://www.w3.org/2000/svg" viewBox="0 0 62.48 66.14"><defs><style>.cls-1{fill:#ec2027;}</style></defs><title>Asset 170</title><g id="Layer_2" data-name="Layer 2"><g id="ICON"><path class="cls-1" d="M57.5,49.68h-.28a5,5,0,0,1-5-5c0-1.54-.07-3.1-.2-4.64a1,1,0,1,1,2-.17c.14,1.59.21,3.21.21,4.81a3,3,0,0,0,3,3h.28a3,3,0,0,0,3-3A59.09,59.09,0,0,0,43.06,2.65a2.26,2.26,0,0,0-3.13,0L38.76,3.81a2.36,2.36,0,0,0-.11,3.24A52.84,52.84,0,0,1,53.58,36.29a1,1,0,1,1-2,.31A50.79,50.79,0,0,0,37.23,8.47a4.35,4.35,0,0,1,.12-6.07l1.16-1.17a4.22,4.22,0,0,1,6,0,61.08,61.08,0,0,1,18,43.47A5,5,0,0,1,57.5,49.68Z"/><path class="cls-1" d="M43.2,38.4H38.8a1,1,0,0,1-1-1V35c-2.84-.69-3.29-2.1-3.29-2.92a6.49,6.49,0,0,1,13,0c0,.82-.45,2.23-3.29,2.92V37.4A1,1,0,0,1,43.2,38.4Zm-3.4-2h2.4V34.2a1,1,0,0,1,.84-1c1.67-.27,2.45-.82,2.45-1.11a4.49,4.49,0,0,0-9,0c0,.29.78.84,2.45,1.11a1,1,0,0,1,.84,1Z"/><path class="cls-1" d="M26.25,40.22a5,5,0,1,1,5-5A5.05,5.05,0,0,1,26.25,40.22Zm0-8.09a3,3,0,1,0,3,3A3.06,3.06,0,0,0,26.25,32.13Z"/><path class="cls-1" d="M32.56,24.52A5,5,0,0,1,29,23a1,1,0,0,1,0-1.41,1,1,0,0,1,1.42,0,3,3,0,1,0,4.3-4.31,1,1,0,0,1,0-1.41,1,1,0,0,1,1.42,0,5,5,0,0,1-3.57,8.61Z"/><path class="cls-1" d="M47.59,42.42a1,1,0,0,1-1-1,1.2,1.2,0,0,0-1.2-1.2,1,1,0,0,1,0-2,3.21,3.21,0,0,1,3.2,3.2A1,1,0,0,1,47.59,42.42Z"/><path class="cls-1" d="M41,24a1,1,0,0,1,0-2,1.2,1.2,0,0,0,1.2-1.2,1,1,0,0,1,2,0A3.2,3.2,0,0,1,41,24Z"/><path class="cls-1" d="M16.48,41.32a3.2,3.2,0,0,1-3.2-3.2,1,1,0,0,1,2,0,1.2,1.2,0,0,0,1.2,1.2,1,1,0,0,1,0,2Z"/><path class="cls-1" d="M30.43,66.14a4.46,4.46,0,0,1-3.09-1.35c-1.53-1.51-1.56-3.5-1.58-5.26l-.07-4.32c0-.35,0-.71,0-1.07a7,7,0,0,0-.23-2.63,1.33,1.33,0,0,0-.74-.75.83.83,0,0,0-.68,0c-.39.19-.57.71-.81,1.56A6.69,6.69,0,0,1,22.61,54a4.65,4.65,0,0,1-4.51,2.13,4.39,4.39,0,0,1-1.37-.4c-2.33-1.17-2.35-4-2.36-5.93v-.2c0-.63,0-1.28-.06-1.92a2.07,2.07,0,0,0-2.06-1.93H1A1,1,0,0,1,.29,44L37.23,7.05a1,1,0,1,1,1.42,1.42L3.41,43.7h8.83a4.07,4.07,0,0,1,4.06,3.77c.06.71.06,1.43.06,2.06v.14c0,1.56,0,3.6,1.26,4.22a2.1,2.1,0,0,0,.72.2,2.61,2.61,0,0,0,2.55-1.17,5.49,5.49,0,0,0,.42-1.16,3.91,3.91,0,0,1,1.88-2.82,2.85,2.85,0,0,1,2.29,0,3.39,3.39,0,0,1,1.86,1.91,8.89,8.89,0,0,1,.35,3.39c0,.33,0,.66,0,1l.07,4.32c0,1.51,0,2.93,1,3.86a2.28,2.28,0,0,0,2,.74A1.59,1.59,0,0,0,31.91,63a14,14,0,0,0,.84-3.94c0-.48,0-1,0-1.51a10.76,10.76,0,0,1,.37-3.39,4,4,0,0,1,3.76-2.9,3.21,3.21,0,0,1,2.33,1.47c.36.42.58.69.88.75.63.13,1.26-.75,1.48-1.38a9.73,9.73,0,0,0,.31-3.46c0-.38,0-.76,0-1.13a3.85,3.85,0,0,1,3.84-3.83h7.49a1,1,0,0,1,0,2H45.75a1.85,1.85,0,0,0-1.84,1.84c0,.35,0,.71,0,1.06a11.25,11.25,0,0,1-.41,4.18c-.56,1.61-2,3-3.78,2.68a3.52,3.52,0,0,1-2-1.45c-.42-.5-.62-.71-.93-.74-.67-.07-1.47.77-1.72,1.53a9.19,9.19,0,0,0-.27,2.77c0,.55,0,1.12-.06,1.68a16.27,16.27,0,0,1-1,4.51,3.58,3.58,0,0,1-2.59,2.3A3.82,3.82,0,0,1,30.43,66.14Z"/></g></g></svg>