<svg xmlns="http://www.w3.org/2000/svg" viewBox="0 0 66 42.56"><defs><style>.cls-1{fill:#ec2027;}</style></defs><title>Asset 160</title><g id="Layer_2" data-name="Layer 2"><g id="ICON"><path class="cls-1" d="M33,29.91a15.21,15.21,0,0,1-5-.86L.67,19.42A1,1,0,0,1,0,18.48V16A7.49,7.49,0,0,1,5,9L28,.86A15.16,15.16,0,0,1,38,.86L61,9A7.49,7.49,0,0,1,66,16v2.46a1,1,0,0,1-.67.94L38,29.05A15.21,15.21,0,0,1,33,29.91ZM2,17.77l26.62,9.39a13.16,13.16,0,0,0,8.76,0L64,17.77V16a5.51,5.51,0,0,0-3.66-5.18h0l-23-8.09a13.16,13.16,0,0,0-8.76,0l-23,8.09A5.51,5.51,0,0,0,2,16Z"/><polygon class="cls-1" points="55.14 26.5 55.14 26.5 55.14 26.5 55.14 26.5"/><polygon class="cls-1" points="45.85 29.77 45.85 29.77 45.85 29.77 45.85 29.77"/><path class="cls-1" d="M33,42.56a15.21,15.21,0,0,1-5-.86L5,33.6a7.52,7.52,0,0,1-5-7.07V23a1,1,0,0,1,.42-.82,1,1,0,0,1,.91-.12L28.62,31.7a13.16,13.16,0,0,0,8.76,0l8.14-2.87a1,1,0,0,1,.91.13,1,1,0,0,1,.42.81v.64a.77.77,0,0,0,.77.77h.12a.77.77,0,0,0,.77-.77v-1a2.05,2.05,0,1,1,4.1,0v4.49a.79.79,0,0,0,.23.56.77.77,0,0,0,.57.21.85.85,0,0,0,.73-.87V26.5a1,1,0,0,1,.67-.95l9.86-3.47A1,1,0,0,1,66,23v3.51a7.52,7.52,0,0,1-5,7.07l-2.61.92a1,1,0,0,1-.66-1.89l2.61-.92A5.49,5.49,0,0,0,64,26.53v-2.1L56.14,27.2v6.57a2.83,2.83,0,0,1-2.62,2.87,2.77,2.77,0,0,1-2.91-2.77V29.38l-.1,1a2.77,2.77,0,0,1-2.77,2.77h-.12a2.78,2.78,0,0,1-2.67-2L38,33.59a15.16,15.16,0,0,1-10.08,0L2,24.43v2.1a5.49,5.49,0,0,0,3.66,5.18l23,8.1a13.16,13.16,0,0,0,8.76,0l11.77-4.15a1,1,0,0,1,.66,1.88L38,41.7A15.21,15.21,0,0,1,33,42.56Z"/><path class="cls-1" d="M15.75,15.06a1,1,0,0,1-1-1,2.93,2.93,0,0,1,2.92-2.93,1,1,0,0,1,0,2,.92.92,0,0,0-.92.93A1,1,0,0,1,15.75,15.06Z"/><path class="cls-1" d="M22,15.62a1,1,0,0,1-1-1A2.93,2.93,0,0,1,24,11.7a1,1,0,0,1,0,2,.92.92,0,0,0-.93.92A1,1,0,0,1,22,15.62Z"/><path class="cls-1" d="M19.26,21.3a1,1,0,0,1-1-1,2.93,2.93,0,0,1,2.92-2.93,1,1,0,0,1,0,2,.92.92,0,0,0-.92.93A1,1,0,0,1,19.26,21.3Z"/></g></g></svg>